<svg width="40" height="34" viewBox="0 0 40 34" fill="none" xmlns="http://www.w3.org/2000/svg">
<path fill-rule="evenodd" clip-rule="evenodd" d="M4.91763e-07 2.84055C4.91763e-07 2.08719 0.350026 1.36469 0.973076 0.83198C1.59613 0.299275 2.44116 3.78685e-06 3.32229 3.78685e-06H36.4403C36.877 -0.000605975 37.3095 0.0724283 37.7131 0.214925C38.1167 0.357422 38.4835 0.566582 38.7924 0.830432C39.1013 1.09428 39.3464 1.40764 39.5135 1.75256C39.6806 2.09749 39.7665 2.46721 39.7662 2.84055V31.1564C39.7667 31.5298 39.6811 31.8996 39.5142 32.2447C39.3473 32.5898 39.1025 32.9034 38.7938 33.1675C38.4851 33.4316 38.1184 33.6411 37.7149 33.7839C37.3114 33.9268 36.8789 34.0002 36.4421 34H3.32229C2.88585 34 2.45368 33.9265 2.05049 33.7836C1.64729 33.6408 1.28096 33.4314 0.972437 33.1675C0.66391 32.9035 0.41923 32.5902 0.252376 32.2454C0.0855214 31.9006 -0.000236963 31.5311 4.91763e-07 31.1579V2.84055ZM15.7402 12.9633H21.1249V15.2753C21.9022 13.9462 23.8905 12.75 26.8784 12.75C32.6065 12.75 33.964 15.3974 33.964 20.2547V29.2524H28.1671V21.3613C28.1671 18.5949 27.3899 17.034 25.416 17.034C22.6776 17.034 21.5388 18.717 21.5388 21.3613V29.2524H15.7402V12.9633ZM5.79864 29.0406H11.5973V12.75H5.79864V29.0391V29.0406ZM12.4269 7.43673C12.4379 7.86122 12.3495 8.28331 12.1671 8.67822C11.9847 9.07312 11.7118 9.43289 11.3645 9.73642C11.0173 10.0399 10.6026 10.2811 10.1448 10.4457C9.68708 10.6104 9.19547 10.6952 8.69886 10.6952C8.20226 10.6952 7.71065 10.6104 7.2529 10.4457C6.79515 10.2811 6.38047 10.0399 6.0332 9.73642C5.68594 9.43289 5.41308 9.07312 5.23063 8.67822C5.04819 8.28331 4.95985 7.86122 4.97078 7.43673C4.99224 6.60351 5.39444 5.81059 6.09126 5.22779C6.78807 4.64499 7.72409 4.31865 8.69886 4.31865C9.67364 4.31865 10.6097 4.64499 11.3065 5.22779C12.0033 5.81059 12.4055 6.60351 12.4269 7.43673Z" fill="#F24E1E"/>
</svg>
