<svg width="43" height="27" viewBox="0 0 43 27" fill="none" xmlns="http://www.w3.org/2000/svg">
<path d="M41.4643 0H1.53571C0.686272 0 0 0.548437 0 1.22727V25.7727C0 26.4516 0.686272 27 1.53571 27H41.4643C42.3137 27 43 26.4516 43 25.7727V1.22727C43 0.548437 42.3137 0 41.4643 0ZM37.5866 4.17656L22.4454 13.592C22.0711 13.826 21.548 13.826 21.1737 13.592L6.02768 4.17656C5.97058 4.14135 5.92871 4.09274 5.90792 4.03755C5.88713 3.98237 5.88847 3.92336 5.91175 3.86881C5.93503 3.81426 5.97909 3.7669 6.03775 3.73337C6.0964 3.69984 6.16672 3.68181 6.23884 3.68182H37.3754C37.4476 3.68181 37.5179 3.69984 37.5765 3.73337C37.6352 3.7669 37.6793 3.81426 37.7025 3.86881C37.7258 3.92336 37.7272 3.98237 37.7064 4.03755C37.6856 4.09274 37.6437 4.14135 37.5866 4.17656Z" fill="#F24E1E"/>
</svg>
