<svg width="29" height="25" viewBox="0 0 29 25" fill="none" xmlns="http://www.w3.org/2000/svg">
<path d="M27.2335 25C12.2084 25.0187 0.804356 14.7812 0.820207 1.56719C0.820207 0.703124 1.60924 0 2.58144 0H7.23111C8.10292 0 8.8444 0.56875 8.97297 1.33437C9.27961 3.17039 9.88163 4.95788 10.7606 6.64218L10.942 6.98905C11.0639 7.22248 11.0901 7.48631 11.0162 7.73504C10.9422 7.98378 10.7727 8.20182 10.537 8.35155C9.09626 9.26405 8.54675 11.1 9.66866 12.5312C11.0759 14.3281 12.8495 15.9031 14.8749 17.1515C16.4899 18.1453 18.5594 17.6578 19.5862 16.3812C19.7548 16.1714 20.0008 16.0205 20.2815 15.9546C20.5623 15.8887 20.8602 15.9119 21.1237 16.0203L21.513 16.1797C23.4116 16.9609 25.4264 17.4953 27.4959 17.7672C28.3589 17.8812 29 18.539 29 19.314V23.4375C29 23.6428 28.9544 23.8461 28.8658 24.0358C28.7771 24.2255 28.6473 24.3978 28.4835 24.5429C28.3198 24.688 28.1254 24.8031 27.9115 24.8815C27.6977 24.9599 27.4684 25.0002 27.237 25H27.2335Z" fill="#F24E1E"/>
</svg>
